<svg id="e067d9d8-25f1-46c2-a6c8-6faeb1289a26" data-name="Layer 1" xmlns="http://www.w3.org/2000/svg" xmlns:xlink="http://www.w3.org/1999/xlink" viewBox="0 0 729.5 165">
  <defs>
    <clipPath id="aff95f9e-bf2c-463a-ab2d-2acbb21f5601" transform="translate(-95.5 -95.5)">
      <path d="M239.46,176.9c-15.38-1.21-24.82,13.2-24.82,13.2,8.1-6.83,16-11.79,32.78-2.81,15.51,8.33,29,4.67,30.93,4.1l-6.23-16.69C260.65,179.6,254.55,178.08,239.46,176.9Z" fill="none"/>
    </clipPath>
    <linearGradient id="795e5059-741c-499f-8e0d-d0e8139442fe" x1="119.14" y1="89.66" x2="182.85" y2="89.66" gradientUnits="userSpaceOnUse">
      <stop offset="0.01" stop-color="#456c88"/>
      <stop offset="0.42" stop-color="#456c88"/>
      <stop offset="0.99" stop-color="#0089ba"/>
    </linearGradient>
    <clipPath id="9b2833e0-4b1b-40a9-a873-94b9bdb53a16" transform="translate(-95.5 -95.5)">
      <path d="M214.64,195.33c9.17-10.72,22.53-9,36.69-1.47A48.49,48.49,0,0,0,281,198.6l-2-5.41c-1.69.91-12.79,6-33.22-4.56-5.34-2.77-9.92-3.82-13.79-3.82C219.78,184.81,214.64,195.33,214.64,195.33Z" fill="none"/>
    </clipPath>
    <linearGradient id="fed9f647-062f-4230-a0d5-d6d7ffc1c06d" x1="119.14" y1="97.41" x2="185.54" y2="97.41" xlink:href="#795e5059-741c-499f-8e0d-d0e8139442fe"/>
    <clipPath id="401e58a6-1153-4e34-b581-71f0e8426748" transform="translate(-95.5 -95.5)">
      <path d="M214,201.23c11.23-10.25,20-12.06,38-1.61,16,9.25,28.52,6.34,31.45,5.45l-1.74-4.65c-1.64.83-12.34,5.28-34.7-6-5.94-3-10.95-4.14-15.13-4.14A20,20,0,0,0,214,201.23Z" fill="none"/>
    </clipPath>
    <linearGradient id="48cfe7ae-4add-4c4c-9407-05360f891042" x1="118.47" y1="103.52" x2="187.96" y2="103.52" xlink:href="#795e5059-741c-499f-8e0d-d0e8139442fe"/>
    <clipPath id="4c364700-87fa-4e3c-9219-72d441fe7b74" transform="translate(-95.5 -95.5)">
      <path d="M214.1,207c12.31-10.19,22.12-10.33,39.53-.67,15.6,8.65,29.13,4.81,31.76,3.92L284.18,207c-13.32,2.31-14.66,2.9-37.84-7.5a33.73,33.73,0,0,0-13.8-3.32A20.72,20.72,0,0,0,214.1,207Z" fill="none"/>
    </clipPath>
    <linearGradient id="d70ca2c7-aad7-4a55-94b5-8e70303ba0f4" x1="118.6" y1="110.07" x2="189.89" y2="110.07" xlink:href="#795e5059-741c-499f-8e0d-d0e8139442fe"/>
    <clipPath id="37b05312-9b83-4462-bf33-7b9fbe59a5c9" transform="translate(-95.5 -95.5)">
      <path d="M175.25,152.83c-10.52,7.38-16.32,6.3-16.32,6.3l-14.26,32.4c16.86,2.68,18.16-1.66,38-8,20.2-6.45,27.52,10.18,27.52,10.18l-0.4-39.41c-5.58-5.86-11.27-8.15-16.84-8.15C186.79,146.16,180.78,149,175.25,152.83Z" fill="none"/>
    </clipPath>
    <linearGradient id="b8c0a0cd-da5f-4b6a-9fea-928360ad7a8e" x1="49.17" y1="74.69" x2="114.69" y2="74.69" gradientUnits="userSpaceOnUse">
      <stop offset="0.01" stop-color="#4a82aa"/>
      <stop offset="0.67" stop-color="#456c88"/>
      <stop offset="0.99" stop-color="#456c88"/>
    </linearGradient>
    <clipPath id="78cdfa76-9d68-4cf8-a0fc-1a6bb031d64a" transform="translate(-95.5 -95.5)">
      <path d="M181.32,187c-19.17,7.73-24.49,9.76-36.33,6.89l-2.08,5c0.65,0.2,10.8,2.44,24-3,15.71-6.43,25.49-15.15,41.41-.26,0,0-5-10.8-17.18-10.8A26.25,26.25,0,0,0,181.32,187Z" fill="none"/>
    </clipPath>
    <linearGradient id="128c3f76-0410-48d7-a29d-eecdf6037426" x1="47.41" y1="95.63" x2="112.8" y2="95.63" xlink:href="#b8c0a0cd-da5f-4b6a-9fea-928360ad7a8e"/>
    <clipPath id="ce6b7e69-1455-42e9-8394-b046980c0c97" transform="translate(-95.5 -95.5)">
      <path d="M180.65,192c-19.25,7.36-22.25,12.72-38.62,9.14l-1.58,3.82c1.9,0.6,13.35,3.31,26.57-3.71,15.18-8,26.81-13.57,41.28-.4,0,0-5.55-10.77-18-10.77A27,27,0,0,0,180.65,192Z" fill="none"/>
    </clipPath>
    <linearGradient id="c8189513-6fbc-4c6d-9bc2-030ff3776624" x1="44.95" y1="102.46" x2="112.8" y2="102.46" xlink:href="#b8c0a0cd-da5f-4b6a-9fea-928360ad7a8e"/>
    <clipPath id="bb58d117-1265-4c04-a528-1deed9437483" transform="translate(-95.5 -95.5)">
      <path d="M177.41,198.55C156.1,208.47,151,211,139.56,207.12l-1.51,3.68c3.34,1.14,16.37,4.59,31.81-4.87,17.94-11,27.31-7.81,38.85.4,0,0-5.78-10.89-18.65-10.89A30.07,30.07,0,0,0,177.41,198.55Z" fill="none"/>
    </clipPath>
    <linearGradient id="505b0c1b-a16b-4b32-b82d-0ee0c6e14eb2" x1="42.55" y1="109.66" x2="113.21" y2="109.66" xlink:href="#b8c0a0cd-da5f-4b6a-9fea-928360ad7a8e"/>
  </defs>
  <title>header</title>
  <polygon points="0.5 0.5 579.5 0.5 633.18 164.5 0.5 164.5 0.5 0.5" fill="#fff" stroke="#000" stroke-linecap="round" stroke-linejoin="round" fill-rule="evenodd"/>
  <path d="M353.77,146.54c0,0.51,0,1.08.06,1.65s0,1.14.07,1.68,0,1,.06,1.46,0,0.76,0,.95l0.22,7a10.74,10.74,0,0,1-.09,1.59,1.74,1.74,0,0,1-.42.85,1.33,1.33,0,0,1-.66.35,3.84,3.84,0,0,1-.86.09v1.78h7.92v-2.12l-2.13.09a3.85,3.85,0,0,1,0-.54c0-.19,0-0.44,0-0.69s0-.54,0-0.83V158.9l-0.45-12.65a5.61,5.61,0,0,1,.1-1.58,1.4,1.4,0,0,1,.38-0.82,1.25,1.25,0,0,1,.67-0.35,5,5,0,0,1,.86-0.13v-1.78H353.1l-4,13.13c-0.26.69-.45,1.36-0.64,2.06s-0.41,1.39-.6,2.12h0c-0.06-.25-0.16-0.6-0.28-1s-0.26-.86-0.39-1.33-0.28-.92-0.41-1.4-0.25-.89-0.38-1.27l-4-12.3H336v2.13l2.16-.1a3,3,0,0,0-.06.54c0,0.22,0,.48,0,0.73s0,0.54,0,.83v0.88l-0.15,12.65c0,0.7-.1,1.2-0.16,1.59a2.18,2.18,0,0,1-.39.85,1.24,1.24,0,0,1-.63.35,3.78,3.78,0,0,1-.86.09v1.78h6.52v-2.12l-2.16.09c0-.13,0-0.32,0-0.54a6.43,6.43,0,0,1,.06-0.69c0-.26,0-0.54,0-0.83V158.9l0.06-6c0-1,0-2.06,0-3.14s-0.07-2.21-.07-3.48h0c0.12,0.76.28,1.52,0.44,2.25s0.32,1.39.51,2,0.35,1.2.51,1.71,0.29,0.89.41,1.17l3.57,10.43h2.51l5.42-17.37h0Z" transform="translate(-95.5 -95.5)" fill="#495155" fill-rule="evenodd"/>
  <path d="M366.79,148.31A6.84,6.84,0,0,0,364.5,150a8.38,8.38,0,0,0-1.56,2.66,9.76,9.76,0,0,0-.58,3.45,8.67,8.67,0,0,0,.54,3.24,7.92,7.92,0,0,0,1.53,2.44,6.08,6.08,0,0,0,2.33,1.55,7.75,7.75,0,0,0,5.76,0,6.39,6.39,0,0,0,2.23-1.68,7.85,7.85,0,0,0,1.46-2.66,10.74,10.74,0,0,0,.54-3.49,8.81,8.81,0,0,0-.57-3.26,7.9,7.9,0,0,0-1.5-2.48,6.81,6.81,0,0,0-2.29-1.55,7.58,7.58,0,0,0-2.83-.54A6.35,6.35,0,0,0,366.79,148.31Zm4.17,2a4.4,4.4,0,0,1,.92,1.52,8.74,8.74,0,0,1,.51,2.13,18.76,18.76,0,0,1,.16,2.34,19.15,19.15,0,0,1-.13,2,6.68,6.68,0,0,1-.41,1.77,3.47,3.47,0,0,1-.86,1.3,2,2,0,0,1-1.4.51,2,2,0,0,1-1.47-.57,4,4,0,0,1-1-1.49,9.63,9.63,0,0,1-.58-2.12,15.36,15.36,0,0,1-.16-2.38,15,15,0,0,1,.13-2,6.52,6.52,0,0,1,.51-1.8,3.38,3.38,0,0,1,.89-1.27,2.28,2.28,0,0,1,1.4-.54A2,2,0,0,1,371,150.31Z" transform="translate(-95.5 -95.5)" fill="#495155" fill-rule="evenodd"/>
  <path d="M387.13,152.53a1.52,1.52,0,0,0,.32.6,1.45,1.45,0,0,0,.57.48,1.81,1.81,0,0,0,.86.16,2,2,0,0,0,.86-0.16,2.74,2.74,0,0,0,.64-0.48,2.65,2.65,0,0,0,.38-0.66,3.71,3.71,0,0,0,.12-0.86,3.3,3.3,0,0,0-.35-1.46,4,4,0,0,0-1-1.23,5,5,0,0,0-1.63-.89,6.85,6.85,0,0,0-2.22-.35,6.13,6.13,0,0,0-2.9.7,6.71,6.71,0,0,0-2.2,1.8,8,8,0,0,0-1.43,2.7,9.81,9.81,0,0,0-.51,3.23,9.64,9.64,0,0,0,.51,3.33,7.41,7.41,0,0,0,1.43,2.44,6,6,0,0,0,2.14,1.52,6.27,6.27,0,0,0,2.57.51,7.91,7.91,0,0,0,1.53-.13,6.22,6.22,0,0,0,1.59-.44,6.55,6.55,0,0,0,1.56-.89,8.75,8.75,0,0,0,1.53-1.52l-1.21-1.08a7,7,0,0,1-.79.83,9.2,9.2,0,0,1-1,.66,3.89,3.89,0,0,1-1,.41,4.06,4.06,0,0,1-1.05.13,2.79,2.79,0,0,1-1.75-.51,3.83,3.83,0,0,1-1.11-1.42,7.23,7.23,0,0,1-.61-2,14.06,14.06,0,0,1-.19-2.38A14.28,14.28,0,0,1,383,153a6.51,6.51,0,0,1,.61-1.84,3.07,3.07,0,0,1,.89-1.11,2,2,0,0,1,1.18-.38,2.38,2.38,0,0,1,.41.06,3,3,0,0,1,.48.16,2.5,2.5,0,0,1,.44.29,1.42,1.42,0,0,1,.35.44,2.37,2.37,0,0,0-.28.63,2.13,2.13,0,0,0-.07.61A1.85,1.85,0,0,0,387.13,152.53Z" transform="translate(-95.5 -95.5)" fill="#495155" fill-rule="evenodd"/>
  <path d="M404.48,157.89a7.91,7.91,0,0,1-.58-0.64,4.12,4.12,0,0,0-.44-0.47c-0.16-.13-0.32-0.22-0.45-0.32a2.51,2.51,0,0,0-.41-0.25v0l1.81-3.08c0.19-.32.45-0.66,0.7-1.05a5.34,5.34,0,0,1,.9-1,5.51,5.51,0,0,1,1.11-.82,3.51,3.51,0,0,1,1.37-.51v-2h-6.43v2h1.53v0a7.33,7.33,0,0,0-.55.89l-0.57,1.14-2,4H399v-2.13c0-.57,0-1.08,0-1.58a4.36,4.36,0,0,1,.22-1.24,1.45,1.45,0,0,1,1.43-1.14v-2h-7.64v2h0.38a1.49,1.49,0,0,0,.48-0.06l0.51-.1,0.51-.09v9.25c0,0.45,0,.86,0,1.24a2.5,2.5,0,0,1-.23.95,1.35,1.35,0,0,1-.5.6,1.62,1.62,0,0,1-.93.22v2.19h7.61v-2.12c-0.13,0-.25,0-0.38,0H400c-0.19,0-.35,0-0.51,0s-0.35,0-.48,0v-4l0.67,0c0.13,0.19.29,0.45,0.51,0.73s0.48,0.64.73,1,0.51,0.69.8,1a12.51,12.51,0,0,0,.8,1c0.28,0.38.57,0.69,0.82,1a4,4,0,0,0,.77.73,3,3,0,0,0,.76.44,1.74,1.74,0,0,0,.83.16H409v-1.74a1.56,1.56,0,0,1-.86-0.23,3.26,3.26,0,0,1-.73-0.5,2.62,2.62,0,0,1-.61-0.64,5.93,5.93,0,0,1-.41-0.54Z" transform="translate(-95.5 -95.5)" fill="#495155" fill-rule="evenodd"/>
  <path d="M417.72,148.31a6.84,6.84,0,0,0-2.29,1.72,8.37,8.37,0,0,0-1.56,2.66,10,10,0,0,0-.58,3.45,8.47,8.47,0,0,0,.55,3.24,7.71,7.71,0,0,0,1.52,2.44,6.16,6.16,0,0,0,2.33,1.55,7.75,7.75,0,0,0,5.76,0,6.38,6.38,0,0,0,2.23-1.68,7.84,7.84,0,0,0,1.46-2.66,10.74,10.74,0,0,0,.54-3.49,8.81,8.81,0,0,0-.57-3.26,7.9,7.9,0,0,0-1.5-2.48,6.81,6.81,0,0,0-2.29-1.55,7.58,7.58,0,0,0-2.83-.54A6.35,6.35,0,0,0,417.72,148.31Zm4.17,2a4.4,4.4,0,0,1,.92,1.52,8.31,8.31,0,0,1,.51,2.13,18.82,18.82,0,0,1,.16,2.34,19.23,19.23,0,0,1-.13,2,6.68,6.68,0,0,1-.41,1.77,3.48,3.48,0,0,1-.86,1.3,2,2,0,0,1-1.4.51,2,2,0,0,1-1.46-.57,3.85,3.85,0,0,1-1-1.49,9.12,9.12,0,0,1-.57-2.12,14.22,14.22,0,0,1-.16-2.38,14.89,14.89,0,0,1,.12-2,6.52,6.52,0,0,1,.51-1.8,3.5,3.5,0,0,1,.89-1.27,2.3,2.3,0,0,1,1.41-.54A2,2,0,0,1,421.89,150.31Z" transform="translate(-95.5 -95.5)" fill="#495155" fill-rule="evenodd"/>
  <path d="M433.67,157.82h3.18a8.68,8.68,0,0,1,1.24.13,3.68,3.68,0,0,1,1.12.35,2.37,2.37,0,0,1,.79.63,1.68,1.68,0,0,1,.29,1,1.63,1.63,0,0,1-.73,1.36,3.89,3.89,0,0,1-2.3.6h-3.59v-4.06Zm0-2v-4.25a4.8,4.8,0,0,1,.09-1.05,1.29,1.29,0,0,1,.32-0.57,1.1,1.1,0,0,1,.48-0.25,3.62,3.62,0,0,1,.6-0.07,8.62,8.62,0,0,1,1.34.1,2.81,2.81,0,0,1,1,.44,1.82,1.82,0,0,1,.57.83,3.87,3.87,0,0,1,.19,1.33,7.87,7.87,0,0,1-.13,1.36,2.26,2.26,0,0,1-.44,1.05,2,2,0,0,1-.92.69,4.06,4.06,0,0,1-1.56.32Zm5.63-.51a4,4,0,0,0,1.94-1.52,4.15,4.15,0,0,0,.58-2.22c0-2.6-1.72-3.87-5.1-3.87h-8.88l-0.06,2a1.85,1.85,0,0,0,.35,0,2.48,2.48,0,0,0,.51-0.07,1.66,1.66,0,0,0,.51-0.09,2.7,2.7,0,0,1,.44-0.06v10.36a4.92,4.92,0,0,1-.12,1.14,1.82,1.82,0,0,1-.35.6,1.17,1.17,0,0,1-.55.26,4.91,4.91,0,0,1-.66.06v2h10.15a10.22,10.22,0,0,0,2.48-.29,6.32,6.32,0,0,0,2-.85,4.24,4.24,0,0,0,1.34-1.46,4,4,0,0,0,.47-2,3,3,0,0,0-1.62-2.51,11.86,11.86,0,0,0-3.44-1.52v0Z" transform="translate(-95.5 -95.5)" fill="#495155" fill-rule="evenodd"/>
  <path d="M454.36,152.53a1.53,1.53,0,0,0,.32.6,1.45,1.45,0,0,0,.57.48,1.81,1.81,0,0,0,.86.16,2,2,0,0,0,.86-0.16,2.74,2.74,0,0,0,.64-0.48,2.37,2.37,0,0,0,.38-0.66,3.7,3.7,0,0,0,.13-0.86,3.44,3.44,0,0,0-.35-1.46,4.16,4.16,0,0,0-1-1.23,5,5,0,0,0-1.63-.89,6.85,6.85,0,0,0-2.22-.35,6.13,6.13,0,0,0-2.9.7,6.71,6.71,0,0,0-2.2,1.8,8,8,0,0,0-1.43,2.7,9.81,9.81,0,0,0-.51,3.23,9.64,9.64,0,0,0,.51,3.33,7.41,7.41,0,0,0,1.43,2.44A6,6,0,0,0,450,163.4a6.27,6.27,0,0,0,2.57.51,7.92,7.92,0,0,0,1.53-.13,6.21,6.21,0,0,0,1.59-.44,6.55,6.55,0,0,0,1.56-.89,8.75,8.75,0,0,0,1.53-1.52l-1.21-1.08a7,7,0,0,1-.79.83,9.21,9.21,0,0,1-1,.66,3.89,3.89,0,0,1-1,.41,4.06,4.06,0,0,1-1,.13,2.79,2.79,0,0,1-1.75-.51,3.83,3.83,0,0,1-1.11-1.42,7.23,7.23,0,0,1-.61-2,15.76,15.76,0,0,1,0-4.88,6.51,6.51,0,0,1,.61-1.84,3.07,3.07,0,0,1,.89-1.11,2,2,0,0,1,1.18-.38,2.39,2.39,0,0,1,.41.06,3,3,0,0,1,.48.16,2.18,2.18,0,0,1,.44.29,1.42,1.42,0,0,1,.35.44,2.37,2.37,0,0,0-.28.63A2.31,2.31,0,0,0,454.36,152.53Z" transform="translate(-95.5 -95.5)" fill="#495155" fill-rule="evenodd"/>
  <path d="M471.71,157.89a7.89,7.89,0,0,1-.58-0.64,4.11,4.11,0,0,0-.44-0.47c-0.16-.13-0.32-0.22-0.45-0.32a2.51,2.51,0,0,0-.41-0.25v0l1.81-3.08c0.2-.32.45-0.66,0.7-1.05a5.7,5.7,0,0,1,.9-1,5.51,5.51,0,0,1,1.11-.82,3.51,3.51,0,0,1,1.37-.51v-2h-6.43v2h1.53v0a7.24,7.24,0,0,0-.54.89l-0.58,1.14-2,4h-1.4v-2.13c0-.57,0-1.08,0-1.58a4.37,4.37,0,0,1,.22-1.24,1.45,1.45,0,0,1,1.43-1.14v-2h-7.64v2h0.38a1.49,1.49,0,0,0,.48-0.06l0.51-.1,0.51-.09v9.25c0,0.45,0,.86,0,1.24a2.71,2.71,0,0,1-.22.95,1.44,1.44,0,0,1-.51.6,1.62,1.62,0,0,1-.93.22v2.19h7.61v-2.12c-0.13,0-.25,0-0.38,0h-0.48c-0.19,0-.35,0-0.51,0s-0.35,0-.48,0v-4l0.67,0c0.13,0.19.29,0.45,0.51,0.73s0.48,0.64.73,1,0.51,0.69.8,1a12.51,12.51,0,0,0,.8,1c0.28,0.38.57,0.69,0.82,1a4,4,0,0,0,.77.73,3,3,0,0,0,.76.44,1.74,1.74,0,0,0,.83.16h3.28v-1.74a1.56,1.56,0,0,1-.86-0.23,3.25,3.25,0,0,1-.73-0.5,2.62,2.62,0,0,1-.61-0.64,5.92,5.92,0,0,1-.41-0.54Z" transform="translate(-95.5 -95.5)" fill="#495155" fill-rule="evenodd"/>
  <path d="M494.79,152.69c0-.41,0-0.79,0-1.17a2.51,2.51,0,0,1,.22-0.95,1.27,1.27,0,0,1,.51-0.64,1.83,1.83,0,0,1,.92-0.22v-2h-7.6v2h0.35a2.89,2.89,0,0,0,.47,0c0.16,0,.32,0,0.51,0s0.32,0,.51,0v1.05L484.6,156v-3.9c0-.38,0-0.76,0-1.11a2,2,0,0,1,.19-0.86,0.69,0.69,0,0,1,.51-0.38c0.22,0,.54,0,1,0v-2h-7.61v2h0.38a1.49,1.49,0,0,0,.48-0.06l0.51-.1,0.48-.09v9.25c0,0.45,0,.86-0.07,1.24a3.32,3.32,0,0,1-.19.95,1.44,1.44,0,0,1-.51.6,1.74,1.74,0,0,1-.95.22v2.19h7.64v-2H484.6v-1.43l6.11-5.38v4.34c0,0.44,0,.82,0,1.14a2.14,2.14,0,0,1-.22.82,1.17,1.17,0,0,1-.51.54,1.9,1.9,0,0,1-.93.19v1.81h7.61v-2.12c-0.12,0-.25,0-0.38,0h-0.48c-0.19,0-.35,0-0.51,0s-0.35,0-.47,0v-9.19Z" transform="translate(-95.5 -95.5)" fill="#495155" fill-rule="evenodd"/>
  <path d="M513.12,152.69c0-.41,0-0.79,0-1.17a2.7,2.7,0,0,1,.23-0.95,1.18,1.18,0,0,1,.51-0.64,1.83,1.83,0,0,1,.92-0.22v-2H507.2v2h0.35a2.94,2.94,0,0,0,.48,0c0.16,0,.32,0,0.51,0s0.32,0,.51,0v1.05L502.94,156v-3.9c0-.38,0-0.76,0-1.11a1.85,1.85,0,0,1,.19-0.86,0.67,0.67,0,0,1,.51-0.38c0.22,0,.54,0,1,0v-2H497v2h0.39a1.46,1.46,0,0,0,.47-0.06l0.51-.1,0.48-.09v9.25c0,0.45,0,.86-0.06,1.24a3.69,3.69,0,0,1-.19.95,1.44,1.44,0,0,1-.51.6,1.8,1.8,0,0,1-1,.22v2.19h7.64v-2h-1.84v-1.43l5.95-5.38,0.16,4.34c0,0.44,0,.82,0,1.14a2.14,2.14,0,0,1-.23.82,1.08,1.08,0,0,1-.51.54,1.86,1.86,0,0,1-.92.19v1.81H515v-2.12c-0.13,0-.26,0-0.38,0h-0.48c-0.19,0-.35,0-0.51,0s-0.35,0-.48,0v-9.19ZM508,145.4a5.53,5.53,0,0,0,1.62-.76,3.39,3.39,0,0,0,1.05-1.21,3.33,3.33,0,0,0,.38-1.65,2.87,2.87,0,0,0-.44-1.61,1.53,1.53,0,0,0-1.31-.6,1.57,1.57,0,0,0-.92.25,1.72,1.72,0,0,0-.57.57,1.79,1.79,0,0,0-.26.67,1.92,1.92,0,0,0-.06.53,2.42,2.42,0,0,0,.06.64,2.94,2.94,0,0,0,.26.7,2.12,2.12,0,0,1-.73.57,2.63,2.63,0,0,1-.86.12,2.55,2.55,0,0,1-.86-0.12,2.05,2.05,0,0,1-.74-0.57,5.17,5.17,0,0,0,.23-0.7,2.53,2.53,0,0,0,.09-0.64,2.23,2.23,0,0,0-.09-0.53,2.16,2.16,0,0,0-.32-0.67,2.22,2.22,0,0,0-.64-0.57,1.9,1.9,0,0,0-1-.25,1.78,1.78,0,0,0-1.49.6,2.5,2.5,0,0,0-.51,1.61,3.44,3.44,0,0,0,.38,1.65,3.49,3.49,0,0,0,1.05,1.21,5.59,5.59,0,0,0,1.59.76,7.16,7.16,0,0,0,2.07.25A7.08,7.08,0,0,0,508,145.4Z" transform="translate(-95.5 -95.5)" fill="#495155" fill-rule="evenodd"/>
  <path d="M336.13,187.87a12.19,12.19,0,0,0,.77,2.6,9,9,0,0,0,1.3,2.32,7.84,7.84,0,0,0,2,1.87,9.44,9.44,0,0,0,2.67,1.27,11.24,11.24,0,0,0,3.37.44,10.18,10.18,0,0,0,3.22-.48,9.11,9.11,0,0,0,2.61-1.3,10,10,0,0,0,2-1.9,12.23,12.23,0,0,0,2.29-4.88,12.3,12.3,0,0,0,.28-2.6,14.58,14.58,0,0,0-.25-2.57,12.15,12.15,0,0,0-.83-2.56,11.46,11.46,0,0,0-1.4-2.32,9.1,9.1,0,0,0-4.58-3.23,10.56,10.56,0,0,0-3.28-.48,10.17,10.17,0,0,0-3.22.48,10,10,0,0,0-2.64,1.3,9.49,9.49,0,0,0-2,1.9A11.86,11.86,0,0,0,337,180a12.94,12.94,0,0,0-.86,2.57A13.18,13.18,0,0,0,336.13,187.87Zm4.36-5a9.89,9.89,0,0,1,.39-2,11,11,0,0,1,.7-1.84,5.32,5.32,0,0,1,1.08-1.49,4.86,4.86,0,0,1,1.49-1,4.81,4.81,0,0,1,2-.38,5.12,5.12,0,0,1,2.7.73,6,6,0,0,1,1.88,2,10,10,0,0,1,1.11,3,18.26,18.26,0,0,1,.39,3.87c0,0.63-.07,1.3-0.13,2a14.07,14.07,0,0,1-.41,1.93,11.92,11.92,0,0,1-.71,1.81,5.55,5.55,0,0,1-1,1.49,4.48,4.48,0,0,1-1.43,1,4.72,4.72,0,0,1-1.91.38,4.94,4.94,0,0,1-2.07-.41,5.09,5.09,0,0,1-1.59-1.17,7.65,7.65,0,0,1-1.18-1.68,10.82,10.82,0,0,1-.79-2,13.12,13.12,0,0,1-.42-2.16,16.15,16.15,0,0,1-.12-2.09A15.61,15.61,0,0,1,340.49,182.83Z" transform="translate(-95.5 -95.5)" fill="#495155" fill-rule="evenodd"/>
  <path d="M364.4,186.23H367a5.86,5.86,0,0,1,1.49.19,3.19,3.19,0,0,1,1.31.63,3.69,3.69,0,0,1,.92,1.24,4.9,4.9,0,0,1,.35,1.93,6.17,6.17,0,0,1-.22,1.62,3.13,3.13,0,0,1-.64,1.26A3.52,3.52,0,0,1,369,194a3.63,3.63,0,0,1-1.6.35h-3v-8.11Zm0-2v-5a7.35,7.35,0,0,1,.13-1.65,1.85,1.85,0,0,1,.38-0.95,1.14,1.14,0,0,1,.6-0.41,3.06,3.06,0,0,1,.8-0.1l1.88,0a5.64,5.64,0,0,1,1.18.16,3,3,0,0,1,1.11.57,3.63,3.63,0,0,1,.83,1.21,5,5,0,0,1,.35,2h1.88l-0.2-6H358.19v2h0.38a3.67,3.67,0,0,0,.58-0.06l0.63-.1,0.55-.09v15.63a6.84,6.84,0,0,1-.16,1.58,2.23,2.23,0,0,1-.39.86,1.31,1.31,0,0,1-.63.35,3.78,3.78,0,0,1-.86.09v2h9.8a9.86,9.86,0,0,0,2.77-.38,6.72,6.72,0,0,0,2.23-1.14,5.22,5.22,0,0,0,1.46-1.94,6.14,6.14,0,0,0,.55-2.63,14.56,14.56,0,0,0-.13-1.61,5.36,5.36,0,0,0-.51-1.49,5.13,5.13,0,0,0-1-1.27,5.59,5.59,0,0,0-1.62-1,10.79,10.79,0,0,0-2.39-.61,20.93,20.93,0,0,0-3.31-.15Z" transform="translate(-95.5 -95.5)" fill="#495155" fill-rule="evenodd"/>
  <path d="M383.44,186.19a4.06,4.06,0,0,1-.64-0.06v-7.45a5.13,5.13,0,0,1,.13-1.36,1.65,1.65,0,0,1,.41-0.79,1,1,0,0,1,.61-0.35,3.19,3.19,0,0,1,.85-0.1,6.62,6.62,0,0,1,.83.07,7.83,7.83,0,0,1,.93.22,3.76,3.76,0,0,1,.85.5,4.25,4.25,0,0,1,.74.86,6.57,6.57,0,0,1,.51,1.33,8.76,8.76,0,0,1,.19,1.9,7.82,7.82,0,0,1-.29,2.22,4.2,4.2,0,0,1-.83,1.68,3.71,3.71,0,0,1-1.46,1,5.57,5.57,0,0,1-2.13.35A3.87,3.87,0,0,1,383.44,186.19Zm5.22,1.37a8.42,8.42,0,0,0,2.57-1.68,6.93,6.93,0,0,0,1.5-2.29,7.2,7.2,0,0,0,.51-2.59,7.88,7.88,0,0,0-.6-3.14A6.08,6.08,0,0,0,391,175.7a7.71,7.71,0,0,0-2.64-1.27,14.49,14.49,0,0,0-3.44-.38l-8.25.07v2.06l2.17-.1a2.94,2.94,0,0,0-.07.54,5.51,5.51,0,0,0-.06.73v14.36a6.27,6.27,0,0,1-.16,1.58,2.09,2.09,0,0,1-.38.86,1.23,1.23,0,0,1-.64.35,3.72,3.72,0,0,1-.86.09v1.78h8.5v-2.12l-2.45.09c0-.29.07-0.7,0.1-1.27s0-1.17,0-1.8v-3a2,2,0,0,0,.48,0h1c0.19,0,.38,0,0.63,0A10.21,10.21,0,0,0,388.66,187.56Z" transform="translate(-95.5 -95.5)" fill="#495155" fill-rule="evenodd"/>
  <path d="M401.55,183.88c0.29-1.08.51-2,.67-2.76s0.28-1.33.35-1.71h0c0.09,0.63.25,1.36,0.44,2.16s0.42,1.61.67,2.44l1.31,4.24h-4.78Zm4.71,8.05a8.11,8.11,0,0,1,.22.79,2.8,2.8,0,0,1,.1.7,1.19,1.19,0,0,1-.32.86,1.35,1.35,0,0,1-1.05.31v1.78h7.67v-2.12l-1.65.09c0-.22-0.07-0.48-0.13-0.79s-0.16-.57-0.22-0.89-0.2-.57-0.26-0.82a4.51,4.51,0,0,0-.19-0.61l-6.08-17.18h-2l-5.57,16.84c-0.2.5-.35,1-0.51,1.39a6.74,6.74,0,0,1-.54,1.14,2.88,2.88,0,0,1-.71.79,1.69,1.69,0,0,1-1,.29v1.87h6.11v-2.22l-2,.1c0.07-.16.13-0.35,0.23-0.58a6.51,6.51,0,0,1,.25-0.69c0.06-.22.16-0.45,0.22-0.64s0.13-.38.19-0.54l0.48-1.39,6.18-.13Z" transform="translate(-95.5 -95.5)" fill="#495155" fill-rule="evenodd"/>
  <path d="M415.3,175.35l0.1-1.3h-2.11v6.88h1.91a12.81,12.81,0,0,1,.74-2.22,5.45,5.45,0,0,1,1.05-1.58,3.86,3.86,0,0,1,1.43-1,5.74,5.74,0,0,1,1.91-.32,3.59,3.59,0,0,1,2.71,1,4.34,4.34,0,0,1,.95,3.08,6.79,6.79,0,0,1-.19,1.65,4.65,4.65,0,0,1-.57,1.36,3.05,3.05,0,0,1-1.09.92,3.36,3.36,0,0,1-1.65.35h-2.55v2h3.6a3.16,3.16,0,0,1,1.21.25,6.28,6.28,0,0,1,1.21.7,11.76,11.76,0,0,1,1.37,1.2,2.53,2.53,0,0,1,.7,1.68,4.54,4.54,0,0,1-.42,2,3.5,3.5,0,0,1-1,1.3,4.58,4.58,0,0,1-1.47.76,4.86,4.86,0,0,1-1.65.25,6.56,6.56,0,0,1-1.91-.25,7.78,7.78,0,0,1-1.82-.73,8.5,8.5,0,0,1-1.65-1.21,7.81,7.81,0,0,1-1.37-1.55l-1.37,1.33a9.34,9.34,0,0,0,2.07,2.41,8.33,8.33,0,0,0,2.16,1.3,8.81,8.81,0,0,0,2.23.57,12,12,0,0,0,2.13.16,13.7,13.7,0,0,0,3.28-.35,7.49,7.49,0,0,0,2.58-1.17,6,6,0,0,0,1.69-1.94,6,6,0,0,0,.6-2.69,4.82,4.82,0,0,0-.35-1.81,5,5,0,0,0-1.08-1.58,7.5,7.5,0,0,0-1.81-1.24,10.94,10.94,0,0,0-2.58-.73,5,5,0,0,0,2.48-2.12,6.79,6.79,0,0,0,.8-3.27,5.46,5.46,0,0,0-.48-2.31,5,5,0,0,0-1.34-1.71,5.94,5.94,0,0,0-2.13-1.08,11.12,11.12,0,0,0-2.83-.32h-1.5a5.17,5.17,0,0,0-1.34.19,9.22,9.22,0,0,0-1.27.48c-0.41.19-.86,0.38-1.34,0.63h0Z" transform="translate(-95.5 -95.5)" fill="#495155" fill-rule="evenodd"/>
  <path d="M431.89,187.87a11.62,11.62,0,0,0,.76,2.6,9.28,9.28,0,0,0,1.3,2.32,8,8,0,0,0,2,1.87,9.44,9.44,0,0,0,2.67,1.27,11.27,11.27,0,0,0,3.38.44,10.11,10.11,0,0,0,3.21-.48,8.86,8.86,0,0,0,2.61-1.3,9.46,9.46,0,0,0,2-1.9,12.23,12.23,0,0,0,2.29-4.88,12.32,12.32,0,0,0,.29-2.6,14.62,14.62,0,0,0-.26-2.57,11.6,11.6,0,0,0-.83-2.56,11,11,0,0,0-1.4-2.32,10.29,10.29,0,0,0-2-1.93,10,10,0,0,0-2.61-1.3,10.56,10.56,0,0,0-3.28-.48,10.07,10.07,0,0,0-3.21.48,9.92,9.92,0,0,0-2.65,1.3,9.49,9.49,0,0,0-2,1.9,11.76,11.76,0,0,0-2.29,4.88,12.63,12.63,0,0,0-.29,2.6A11.94,11.94,0,0,0,431.89,187.87Zm4.36-5a9.88,9.88,0,0,1,.38-2,11,11,0,0,1,.7-1.84,5.53,5.53,0,0,1,1.08-1.49,4.91,4.91,0,0,1,1.5-1,4.76,4.76,0,0,1,1.94-.38,5.09,5.09,0,0,1,2.7.73,6,6,0,0,1,1.88,2,10.28,10.28,0,0,1,1.12,3,19,19,0,0,1,.38,3.87,19.32,19.32,0,0,1-.13,2,12.72,12.72,0,0,1-.41,1.93,11.88,11.88,0,0,1-.7,1.81,6,6,0,0,1-1.05,1.49,4.52,4.52,0,0,1-1.44,1,4.72,4.72,0,0,1-1.91.38,4.86,4.86,0,0,1-2.06-.41,5,5,0,0,1-1.6-1.17,7.3,7.3,0,0,1-1.17-1.68,10.86,10.86,0,0,1-.8-2,12.13,12.13,0,0,1-.41-2.16,14.55,14.55,0,0,1-.13-2.09A14,14,0,0,1,436.25,182.83Z" transform="translate(-95.5 -95.5)" fill="#495155" fill-rule="evenodd"/>
  <path d="M460.22,184.23v-5.3a10.19,10.19,0,0,1,.09-1.52,2.22,2.22,0,0,1,.32-0.85,0.77,0.77,0,0,1,.45-0.35,3.86,3.86,0,0,1,.57-0.13,2.65,2.65,0,0,1,.92.19,2.57,2.57,0,0,1,.83.57,3.62,3.62,0,0,1,.57,1.08,5,5,0,0,1,.26,1.68,10.92,10.92,0,0,1-.16,1.78,5.77,5.77,0,0,1-.45,1.45,2.86,2.86,0,0,1-.86,1,2.1,2.1,0,0,1-1.27.38Zm-0.07,9.67c0-.19,0-0.45,0-0.7s0-.51,0-0.79v-6.15c0.63,0,1.4,0,2.32,0a5,5,0,0,1,1.37.19,2.83,2.83,0,0,1,1.18.66,3.57,3.57,0,0,1,.86,1.21,5.14,5.14,0,0,1,.31,1.83,6.59,6.59,0,0,1-.19,1.68,4,4,0,0,1-.6,1.3,3.2,3.2,0,0,1-1.05.89,3.32,3.32,0,0,1-1.5.35c-0.44,0-.92,0-1.37,0h-1.43A2.89,2.89,0,0,1,460.15,193.9ZM454,196.37h9.74a8.94,8.94,0,0,0,2.8-.41,6.3,6.3,0,0,0,2.2-1.21,5.8,5.8,0,0,0,1.43-2,6.87,6.87,0,0,0,.54-2.79,5,5,0,0,0-.38-1.94,5.32,5.32,0,0,0-1.08-1.71,7.35,7.35,0,0,0-1.85-1.3,9.87,9.87,0,0,0-2.64-.82v0a5.79,5.79,0,0,0,1.69-.83,4.54,4.54,0,0,0,1.17-1.14,4.75,4.75,0,0,0,.71-1.3,5.46,5.46,0,0,0-.29-3.84,4.63,4.63,0,0,0-1.4-1.68,6.54,6.54,0,0,0-2.17-1,11.5,11.5,0,0,0-2.86-.35H454v2.13l2.13-.1a3,3,0,0,0-.06.54c0,0.22,0,.48,0,0.73v14.33a6.74,6.74,0,0,1-.16,1.55,2.23,2.23,0,0,1-.38.86,1.35,1.35,0,0,1-.64.35,3.72,3.72,0,0,1-.86.09v1.84Z" transform="translate(-95.5 -95.5)" fill="#495155" fill-rule="evenodd"/>
  <path d="M479,183.88q0.42-1.62.66-2.76c0.16-.76.29-1.33,0.35-1.71h0c0.09,0.63.25,1.36,0.44,2.16s0.42,1.61.67,2.44l1.31,4.24h-4.78Zm4.71,8.05c0.09,0.29.16,0.54,0.22,0.79a3.34,3.34,0,0,1,.1.7,1.18,1.18,0,0,1-.32.86,1.35,1.35,0,0,1-1.05.31v1.78h7.67v-2.12l-1.66.09c0-.22-0.06-0.48-0.12-0.79s-0.16-.57-0.23-0.89-0.19-.57-0.25-0.82-0.13-.45-0.19-0.61l-6.08-17.18h-2l-5.57,16.84c-0.19.5-.35,1-0.51,1.39a6.73,6.73,0,0,1-.54,1.14,2.7,2.7,0,0,1-.7.79,1.7,1.7,0,0,1-1,.29v1.87h6.12v-2.22l-2,.1,0.22-.58c0.07-.22.16-0.44,0.26-0.69s0.16-.45.22-0.64,0.13-.38.19-0.54l0.48-1.39,6.17-.13Z" transform="translate(-95.5 -95.5)" fill="#495155" fill-rule="evenodd"/>
  <path d="M490.87,174.05l-0.16,6.09h1.88a4.59,4.59,0,0,1,.83-3.08,2.85,2.85,0,0,1,2.26-1h1.14v15.66a9.89,9.89,0,0,1-.12,1.59,1.71,1.71,0,0,1-.42.82,1.24,1.24,0,0,1-.63.35,3.84,3.84,0,0,1-.86.09v1.78h8.34v-2.12l-2.3.09a5.4,5.4,0,0,1,.07-0.54c0-.19,0-0.44,0-0.7s0-.5,0-0.82V176.05h1.18a2.73,2.73,0,0,1,2.2,1,5.17,5.17,0,0,1,.79,3.08H507l-0.16-6.09h-16Z" transform="translate(-95.5 -95.5)" fill="#495155" fill-rule="evenodd"/>
  <path d="M515.67,186.23a4.43,4.43,0,0,1,.64,0,1.16,1.16,0,0,1,.54.25,1.48,1.48,0,0,1,.38.6,5.43,5.43,0,0,1,.13,1.14h1.87v-6.08H517l0.09,2h-1.91v-5.14a6.74,6.74,0,0,1,.13-1.58,1.88,1.88,0,0,1,.35-0.89,1.08,1.08,0,0,1,.61-0.38,4.74,4.74,0,0,1,.76-0.13l1,0a4.9,4.9,0,0,1,1.17.16,2.24,2.24,0,0,1,1.09.6,4.07,4.07,0,0,1,.79,1.24,6.29,6.29,0,0,1,.32,2.09h1.88l-0.16-6.09h-14.1v2.13l2.13-.1c0,0.16,0,.35,0,0.54a5.51,5.51,0,0,0-.07.73v14.39a7,7,0,0,1-.15,1.59,2.17,2.17,0,0,1-.39.85,1.24,1.24,0,0,1-.63.35,3.75,3.75,0,0,1-.86.1v1.74h14.1l0.16-6.09h-1.88a5.71,5.71,0,0,1-.29,1.94,4.56,4.56,0,0,1-.66,1.23,2.52,2.52,0,0,1-1,.7,3.28,3.28,0,0,1-1.08.19h-3.31a3.47,3.47,0,0,1,0-.51c0-.19,0-0.44,0-0.69s0-.51,0-0.8v-6.11h0.45Z" transform="translate(-95.5 -95.5)" fill="#495155" fill-rule="evenodd"/>
  <path d="M543.68,178.9a6.34,6.34,0,0,1,.13-1.52,1.62,1.62,0,0,1,.41-0.82,1,1,0,0,1,.61-0.35,6,6,0,0,1,.89-0.13v-2H530v2h3.27l-0.09,3.77a62.2,62.2,0,0,1-.51,6.66,35.06,35.06,0,0,1-.89,4.47,9.37,9.37,0,0,1-1.08,2.57,1.5,1.5,0,0,1-1,.79,0.61,0.61,0,0,1-.25,0,0.16,0.16,0,0,1-.16-0.1,1.2,1.2,0,0,0,.25-0.82,2.89,2.89,0,0,0-.13-0.76,1.49,1.49,0,0,0-.35-0.64,2.61,2.61,0,0,0-.6-0.41,2.58,2.58,0,0,0-.86-0.16,2.54,2.54,0,0,0-1,.23,1.54,1.54,0,0,0-.73.57,2.88,2.88,0,0,0-.45.85,3.81,3.81,0,0,0-.13,1,1.77,1.77,0,0,0,.26,1,1.81,1.81,0,0,0,.7.7,3.14,3.14,0,0,0,1.05.44,6.06,6.06,0,0,0,1.4.13,3.57,3.57,0,0,0,1.66-.41,4.43,4.43,0,0,0,1.52-1.3,9.53,9.53,0,0,0,1.34-2.32,24.9,24.9,0,0,0,1-3.48,37.3,37.3,0,0,0,.76-4.73c0.2-1.77.29-3.83,0.35-6.11a1.74,1.74,0,0,1,.48-1.43,2.5,2.5,0,0,1,1.43-.44l2.3-.07v15.41a9.65,9.65,0,0,1-.13,1.58,1.75,1.75,0,0,1-.41.83,1.39,1.39,0,0,1-.64.35,3.78,3.78,0,0,1-.86.09v2h8.28v-2.12c-0.13,0-.26,0-0.45,0h-0.57l-0.61,0c-0.22,0-.41,0-0.54,0V178.9Z" transform="translate(-95.5 -95.5)" fill="#495155" fill-rule="evenodd"/>
  <path d="M555.9,186.23l1.41,0a4.33,4.33,0,0,1,1.27.19,2.33,2.33,0,0,1,1,.67,3.25,3.25,0,0,1,.66,1.24,6.31,6.31,0,0,1,.26,1.9,8.58,8.58,0,0,1-.16,1.68,4.5,4.5,0,0,1-.51,1.27,2.48,2.48,0,0,1-.89.85,2.28,2.28,0,0,1-1.24.35H555.9v-8.11Zm0-2v-5a8.32,8.32,0,0,1,.13-1.68,2,2,0,0,1,.42-0.92,1.17,1.17,0,0,1,.63-0.38,6.47,6.47,0,0,1,.86-0.13v-2H549.7v2h0.38a3.67,3.67,0,0,0,.57-0.06l0.64-.1,0.54-.09v15.63a6.32,6.32,0,0,1-.16,1.58,2.09,2.09,0,0,1-.38.86,1.3,1.3,0,0,1-.64.35,3.72,3.72,0,0,1-.86.09v2h8.44a8.1,8.1,0,0,0,2.51-.38,5.63,5.63,0,0,0,2-1.11,5.12,5.12,0,0,0,1.34-1.87,6.55,6.55,0,0,0,.47-2.57,8.72,8.72,0,0,0-.16-1.58,6.66,6.66,0,0,0-.54-1.53,6.45,6.45,0,0,0-.92-1.33,4.84,4.84,0,0,0-1.43-1,8.58,8.58,0,0,0-2-.67,12,12,0,0,0-2.67-.12Z" transform="translate(-95.5 -95.5)" fill="#495155" fill-rule="evenodd"/>
  <path d="M586.53,178.71a6.76,6.76,0,0,1,.13-1.58,1.66,1.66,0,0,1,.41-0.83,1.11,1.11,0,0,1,.64-0.34,5,5,0,0,1,.86-0.13v-1.78h-8.22v2.13l2.17-.1a3,3,0,0,0-.07.57,5.51,5.51,0,0,0-.06.73v6.82H574.3v-5.39a7.5,7.5,0,0,1,.13-1.62,1.9,1.9,0,0,1,.42-0.89,1.08,1.08,0,0,1,.63-0.34,5.19,5.19,0,0,1,.86-0.13v-1.78h-8.21v2.13l2.16-.1a3,3,0,0,0-.06.54,5.53,5.53,0,0,0-.06.73v14.36a6.77,6.77,0,0,1-.16,1.58,2.23,2.23,0,0,1-.39.86,1.24,1.24,0,0,1-.63.35,3.78,3.78,0,0,1-.86.09v1.78h8.21v-2.12l-2.16.09a4.88,4.88,0,0,1,.06-0.54c0-.22,0-0.47,0-0.76s0-.54,0-0.86v-6l8.09-.1v5.52a6.6,6.6,0,0,1-.16,1.61,2.09,2.09,0,0,1-.38.86,1.28,1.28,0,0,1-.64.38,3.72,3.72,0,0,1-.86.09v1.78h8.22v-2.12l-2.17.09a4.85,4.85,0,0,1,.06-0.54c0-.19,0-0.44,0-0.7s0-.53,0-0.82V178.71Z" transform="translate(-95.5 -95.5)" fill="#495155" fill-rule="evenodd"/>
  <path d="M596.65,186.23l1.4,0a4.28,4.28,0,0,1,1.27.19,2.22,2.22,0,0,1,1,.67,3.26,3.26,0,0,1,.67,1.24,6.34,6.34,0,0,1,.25,1.9,9.47,9.47,0,0,1-.15,1.68,4.5,4.5,0,0,1-.51,1.27,2.51,2.51,0,0,1-.9.85,2.28,2.28,0,0,1-1.24.35h-1.78v-8.11ZM615,174.05h-8.25v2h0.38l0.58,0c0.19,0,.41,0,0.63,0s0.39,0,.54,0v15.5a9.72,9.72,0,0,1-.12,1.55,2.4,2.4,0,0,1-.38.86,1.49,1.49,0,0,1-.67.35,3.7,3.7,0,0,1-.83.09v2h8.24v-2H613V178.9a6.34,6.34,0,0,1,.13-1.52,1.62,1.62,0,0,1,.41-0.82,1.12,1.12,0,0,1,.64-0.35,6.23,6.23,0,0,1,.86-0.13v-2ZM596.65,184.2v-5a7.65,7.65,0,0,1,.13-1.68,1.88,1.88,0,0,1,.41-0.92,1.16,1.16,0,0,1,.64-0.38,6.23,6.23,0,0,1,.86-0.13v-2h-8.25v2h0.39a3.67,3.67,0,0,0,.57-0.06l0.64-.1,0.54-.09v15.63a6.84,6.84,0,0,1-.16,1.58,2.39,2.39,0,0,1-.38.86,1.39,1.39,0,0,1-.64.35,3.78,3.78,0,0,1-.86.09v2h8.18a7.67,7.67,0,0,0,2.42-.38,5.27,5.27,0,0,0,1.91-1.11,5.34,5.34,0,0,0,1.27-1.87,6.37,6.37,0,0,0,.48-2.57,8.74,8.74,0,0,0-.16-1.58,6.44,6.44,0,0,0-.48-1.53,7.7,7.7,0,0,0-.89-1.33,5,5,0,0,0-1.37-1,7.25,7.25,0,0,0-1.91-.67,10.34,10.34,0,0,0-2.48-.12Z" transform="translate(-95.5 -95.5)" fill="#495155" fill-rule="evenodd"/>
  <path d="M637.4,178.9a7,7,0,0,1,.12-1.52,1.71,1.71,0,0,1,.42-0.82,1.13,1.13,0,0,1,.63-0.35,6.74,6.74,0,0,1,.86-0.13v-2h-8.15v2h0.39c0.16,0,.35,0,0.54,0l0.6,0c0.19,0,.35,0,0.51,0v1.39l-8.15,10.3V178.4a5.62,5.62,0,0,1,.13-1.46,1.51,1.51,0,0,1,.41-0.73,1,1,0,0,1,.64-0.19,7.25,7.25,0,0,0,.86.06v-2H619v2h0.38a3.67,3.67,0,0,0,.57-0.06l0.64-.1,0.54-.09v15.53a6.68,6.68,0,0,1-.16,1.55,2.23,2.23,0,0,1-.38.86,1.3,1.3,0,0,1-.64.35,3.72,3.72,0,0,1-.86.09v2.16h8.15v-2h-2V192.6l8.72-10.4-0.57,9.73a5.4,5.4,0,0,1-.16,1.46,1.63,1.63,0,0,1-.38.76,1,1,0,0,1-.64.32,3.74,3.74,0,0,1-.86.09v1.81h8.25v-2.12c-0.13,0-.26,0-0.41,0h-0.58c-0.22,0-.44,0-0.63,0s-0.39,0-.51,0V178.9Zm-5.83-5.1a7.05,7.05,0,0,0,1.94-.79,4.34,4.34,0,0,0,1.34-1.18,2.25,2.25,0,0,0,.51-1.39,2.62,2.62,0,0,0-.1-0.73,2.28,2.28,0,0,0-.31-0.6,2.81,2.81,0,0,0-.55-0.41,1.45,1.45,0,0,0-.76-0.19,1.93,1.93,0,0,0-.92.19,1.38,1.38,0,0,0-.58.47,2.7,2.7,0,0,0-.28.6,1.23,1.23,0,0,0-.07.45,1.77,1.77,0,0,0,.07.6,1.47,1.47,0,0,0,.22.6,3.89,3.89,0,0,1-1.15.45,5.46,5.46,0,0,1-1.43.15,5.7,5.7,0,0,1-1.46-.15,3.4,3.4,0,0,1-1.12-.45,4.86,4.86,0,0,0,.23-0.6,4.07,4.07,0,0,0,.06-0.6,1.42,1.42,0,0,0-.1-0.45,1.87,1.87,0,0,0-.35-0.6,1.8,1.8,0,0,0-.63-0.47,2.32,2.32,0,0,0-1-.19,1.93,1.93,0,0,0-.92.19,2,2,0,0,0-.61.41,1.6,1.6,0,0,0-.35.6,3,3,0,0,0-.09.73,2.2,2.2,0,0,0,.47,1.39A4.45,4.45,0,0,0,625,173a6.88,6.88,0,0,0,2,.79,9.25,9.25,0,0,0,2.33.25A9.48,9.48,0,0,0,631.57,173.8Z" transform="translate(-95.5 -95.5)" fill="#495155" fill-rule="evenodd"/>
  <path d="M346.06,221.32a8.7,8.7,0,0,1,0-1.05,2.35,2.35,0,0,1,.16-0.86,1,1,0,0,1,.41-0.54,1.63,1.63,0,0,1,.86-0.19v-2h-5v2H344v0.45l-6.11,7.51v-5.17c0-.44,0-0.82,0-1.2a2.58,2.58,0,0,1,.16-0.95,0.87,0.87,0,0,1,.44-0.51,2.82,2.82,0,0,1,.86-0.13v-2h-5.06v2.09l1.53-.07v5.84c0,0.35,0,.66,0,0.92a4.75,4.75,0,0,1-.16.73,1.34,1.34,0,0,1-.45.47,1.52,1.52,0,0,1-.83.16v2h5.06v-2.32l-1.55.1v-0.67L344,218.3v5.52c0,0.44,0,.86,0,1.2a2.92,2.92,0,0,1-.16,1,1.28,1.28,0,0,1-.42.6,1.32,1.32,0,0,1-.86.22v2h5.06v-0.89l-1.56.06v-6.68Z" transform="translate(-95.5 -95.5)" fill="#495155" fill-rule="evenodd"/>
  <path d="M360.33,221.32v-1.05a2.58,2.58,0,0,1,.15-0.86,1.07,1.07,0,0,1,.42-0.54,1.64,1.64,0,0,1,.86-0.19v-2h-5v2h1.56v2h-6.11v-1.26a0.65,0.65,0,0,1,.16-0.39,0.88,0.88,0,0,1,.44-0.28,3,3,0,0,1,.86-0.1v-2h-5v2.09l1.53-.07v5.84c0,0.35,0,.66,0,0.92a3.79,3.79,0,0,1-.16.73,1.35,1.35,0,0,1-.45.47,1.52,1.52,0,0,1-.83.16v2h5.07v-1.05l-1.56.07v-5l6.11-.07v1.68c0,0.35,0,.67,0,1a1.76,1.76,0,0,1-.16.76,1.12,1.12,0,0,1-.42.51,1.55,1.55,0,0,1-.86.16v2h5v-0.89l-1.52.06v-6.68Z" transform="translate(-95.5 -95.5)" fill="#495155" fill-rule="evenodd"/>
  <path d="M374.68,221.32l-0.09-4.66H362l-0.1,4.66h0.93a7.54,7.54,0,0,1,.09-1.27,2.31,2.31,0,0,1,.35-0.83,1.13,1.13,0,0,1,.61-0.41,3.13,3.13,0,0,1,.82-0.13h1.79v5.81c0,0.34-.07.66-0.07,0.95a1.6,1.6,0,0,1-.16.73,1.15,1.15,0,0,1-.41.47,1.57,1.57,0,0,1-.86.16v2H370v-0.92l-1.56.06v-9.29h1.76a5.05,5.05,0,0,1,1.08.13,1.42,1.42,0,0,1,.7.41,1.81,1.81,0,0,1,.38.83,10.87,10.87,0,0,1,.16,1.27h2.13Z" transform="translate(-95.5 -95.5)" fill="#495155" fill-rule="evenodd"/>
  <path d="M386.43,220a5.81,5.81,0,0,0-1-1.87A4.23,4.23,0,0,0,384,217a4.15,4.15,0,0,0-1.75-.38,5.68,5.68,0,0,0-2.33.5,5.85,5.85,0,0,0-1.78,1.37,5.54,5.54,0,0,0-1.14,1.93,7,7,0,0,0-.39,2.31,6.74,6.74,0,0,0,.42,2.51,5.16,5.16,0,0,0,1.18,1.9,4.8,4.8,0,0,0,1.71,1.24,5.59,5.59,0,0,0,2.17.41,4.66,4.66,0,0,0,1.21-.19,5,5,0,0,0,1.3-.6,5.78,5.78,0,0,0,1.28-1,6.82,6.82,0,0,0,1.08-1.62l-0.57-.6a3.37,3.37,0,0,1-.74.82,5.68,5.68,0,0,1-1,.64,4.3,4.3,0,0,1-1.08.41,3.49,3.49,0,0,1-1.12.16c-0.7,0-1.37,0-2,0a1.38,1.38,0,0,1-1.34-.7,3.86,3.86,0,0,1-.45-1.52,17.55,17.55,0,0,1-.06-1.81l8.18-.16A8.27,8.27,0,0,0,386.43,220Zm-3.06-1.11a2.46,2.46,0,0,1,.8.48,2,2,0,0,1,.44.63,2,2,0,0,1,.16.73h-6.08a2.4,2.4,0,0,1,1.18-1.55,4.93,4.93,0,0,1,2.32-.48A3.43,3.43,0,0,1,383.37,218.87Z" transform="translate(-95.5 -95.5)" fill="#495155" fill-rule="evenodd"/>
  <path d="M395.4,219a2,2,0,0,1,1.18.89,3.83,3.83,0,0,1,.35,1.27c0,0.47.07,1,.07,1.43v1.93a1.69,1.69,0,0,1-.54,1.46,3.9,3.9,0,0,1-1.34.6,6.16,6.16,0,0,1-1.53.19,4.88,4.88,0,0,1-1.4-.19,3.92,3.92,0,0,1-1.21-.54v-4.15c0-.45,0-0.83,0-1.08v-0.63c0-.13,0-0.26,0-0.32V219.7a3.75,3.75,0,0,1,.51-0.38,3.81,3.81,0,0,1,.64-0.32,4.46,4.46,0,0,1,.7-0.22,3.36,3.36,0,0,1,.79-0.1A5.21,5.21,0,0,1,395.4,219Zm-6.55,11.41c0,0.38,0,.73,0,1.08a3.69,3.69,0,0,1-.13.83,1.32,1.32,0,0,1-.45.54,1.57,1.57,0,0,1-.83.19v1.83h5v-2.09l-1.53.07a6.72,6.72,0,0,0,.07-0.67c0-.22,0-0.48,0-0.73v-3.42a4.82,4.82,0,0,0,2.74.76,6.34,6.34,0,0,0,1.49-.19,5.62,5.62,0,0,0,2.58-1.59,5.43,5.43,0,0,0,.92-1.3,7.42,7.42,0,0,0,.61-1.58,8.14,8.14,0,0,0,.22-1.84,7,7,0,0,0-.41-2.38,6.22,6.22,0,0,0-1.12-1.77,4.44,4.44,0,0,0-1.59-1.11,4.78,4.78,0,0,0-1.91-.41,3.49,3.49,0,0,0-1,.15,7.67,7.67,0,0,0-1,.38,3.94,3.94,0,0,0-.86.58,7.76,7.76,0,0,0-.76.76c0-.38-0.07-0.73-0.07-1.05s0-.57,0-0.82h-3.59v2l1.75-.09a2.78,2.78,0,0,0-.1.73V220Z" transform="translate(-95.5 -95.5)" fill="#495155" fill-rule="evenodd"/>
  <path d="M413.29,221.32v-1.05a2.58,2.58,0,0,1,.16-0.86,1.07,1.07,0,0,1,.42-0.54,1.63,1.63,0,0,1,.86-0.19v-2h-5v2h1.56v2h-6.11v-1.26a0.71,0.71,0,0,1,.15-0.39,1,1,0,0,1,.45-0.28,3,3,0,0,1,.86-0.1v-2h-5v2.09l1.53-.07v5.84c0,0.35,0,.66,0,0.92a4.76,4.76,0,0,1-.16.73,1.34,1.34,0,0,1-.45.47,1.52,1.52,0,0,1-.83.16v2h5.07v-1.05l-1.56.07v-5l6.11-.07v1.68c0,0.35,0,.67,0,1a1.76,1.76,0,0,1-.16.76,1.12,1.12,0,0,1-.42.51,1.55,1.55,0,0,1-.86.16v2h5v-0.89l-1.53.06v-6.68Z" transform="translate(-95.5 -95.5)" fill="#495155" fill-rule="evenodd"/>
  <path d="M427.17,220a5.8,5.8,0,0,0-1-1.87,4.27,4.27,0,0,0-1.44-1.07,4.12,4.12,0,0,0-1.75-.38,5.63,5.63,0,0,0-2.32.5,5.85,5.85,0,0,0-1.78,1.37,5.73,5.73,0,0,0-1.15,1.93,7.31,7.31,0,0,0-.38,2.31,7,7,0,0,0,.41,2.51,5.29,5.29,0,0,0,1.18,1.9,4.83,4.83,0,0,0,1.72,1.24,5.57,5.57,0,0,0,2.16.41,4.53,4.53,0,0,0,1.21-.19,5.09,5.09,0,0,0,1.31-.6,5.52,5.52,0,0,0,1.27-1,6.56,6.56,0,0,0,1.09-1.62l-0.58-.6a3.33,3.33,0,0,1-.73.82,6.17,6.17,0,0,1-1,.64,4.3,4.3,0,0,1-1.08.41,3.39,3.39,0,0,1-1.11.16c-0.7,0-1.37,0-2,0a1.39,1.39,0,0,1-1.34-.7,3.86,3.86,0,0,1-.44-1.52,15.1,15.1,0,0,1-.07-1.81l8.19-.16A8,8,0,0,0,427.17,220Zm-3-1.11a2.41,2.41,0,0,1,.79.48,2.21,2.21,0,0,1,.45.63,2.18,2.18,0,0,1,.16.73h-6.08a2.37,2.37,0,0,1,1.18-1.55,4.9,4.9,0,0,1,2.32-.48A3.43,3.43,0,0,1,424.12,218.87Z" transform="translate(-95.5 -95.5)" fill="#495155" fill-rule="evenodd"/>
  <path d="M439.88,221.32l-0.1-4.66H427.14l-0.09,4.66H428a6.52,6.52,0,0,1,.1-1.27,2.15,2.15,0,0,1,.35-0.83,1.11,1.11,0,0,1,.6-0.41,3.14,3.14,0,0,1,.83-0.13h1.78v5.81c0,0.34-.06.66-0.06,0.95a1.75,1.75,0,0,1-.16.73,1.26,1.26,0,0,1-.42.47,1.55,1.55,0,0,1-.86.16v2h5.1v-0.92l-1.56.06v-9.29h1.75a5.05,5.05,0,0,1,1.08.13,1.38,1.38,0,0,1,.7.41,1.81,1.81,0,0,1,.38.83,9.12,9.12,0,0,1,.16,1.27h2.14Z" transform="translate(-95.5 -95.5)" fill="#495155" fill-rule="evenodd"/>
  <polygon points="346.32 127.34 354.47 127.24 354.47 125.21 346.32 125.21 346.32 127.34" fill="#495155" fill-rule="evenodd"/>
  <path d="M464.32,221.32l-0.09-4.66H451.59l-0.1,4.66h0.93a7.54,7.54,0,0,1,.09-1.27,2.31,2.31,0,0,1,.35-0.83,1.13,1.13,0,0,1,.61-0.41,3.14,3.14,0,0,1,.83-0.13h1.78v5.81c0,0.34-.07.66-0.07,0.95a1.75,1.75,0,0,1-.15.73,1.26,1.26,0,0,1-.42.47,1.57,1.57,0,0,1-.86.16v2h5.09v-0.92l-1.55.06v-9.29h1.75a5.05,5.05,0,0,1,1.08.13,1.42,1.42,0,0,1,.7.41,1.81,1.81,0,0,1,.38.83,10.88,10.88,0,0,1,.16,1.27h2.13Z" transform="translate(-95.5 -95.5)" fill="#495155" fill-rule="evenodd"/>
  <path d="M476.07,220a5.82,5.82,0,0,0-1-1.87,4.24,4.24,0,0,0-1.43-1.07,4.15,4.15,0,0,0-1.75-.38,5.71,5.71,0,0,0-2.33.5,5.85,5.85,0,0,0-1.78,1.37,5.55,5.55,0,0,0-1.14,1.93,7,7,0,0,0-.39,2.31,6.74,6.74,0,0,0,.42,2.51,5.16,5.16,0,0,0,1.18,1.9,4.8,4.8,0,0,0,1.71,1.24,5.62,5.62,0,0,0,2.17.41,4.65,4.65,0,0,0,1.21-.19,5,5,0,0,0,1.3-.6,5.79,5.79,0,0,0,1.28-1,6.82,6.82,0,0,0,1.08-1.62l-0.57-.6a3.37,3.37,0,0,1-.74.82,5.7,5.7,0,0,1-1,.64,4.3,4.3,0,0,1-1.08.41,3.49,3.49,0,0,1-1.12.16c-0.7,0-1.37,0-2,0a1.38,1.38,0,0,1-1.34-.7,3.86,3.86,0,0,1-.45-1.52,17.52,17.52,0,0,1-.06-1.81l8.18-.16A8.27,8.27,0,0,0,476.07,220ZM473,218.87a2.46,2.46,0,0,1,.8.48,2,2,0,0,1,.44.63,2,2,0,0,1,.16.73h-6.08a2.4,2.4,0,0,1,1.18-1.55,5,5,0,0,1,2.33-.48A3.41,3.41,0,0,1,473,218.87Z" transform="translate(-95.5 -95.5)" fill="#495155" fill-rule="evenodd"/>
  <path d="M488.67,221a6.76,6.76,0,0,1,0-.92,1.54,1.54,0,0,1,.16-0.7,1,1,0,0,1,.41-0.48,1.63,1.63,0,0,1,.86-0.19v-2H478.23v2h2.3a33.4,33.4,0,0,1-.42,3.81,18,18,0,0,1-.6,2.53,4.07,4.07,0,0,1-.7,1.37,1,1,0,0,1-.67.41,0.47,0.47,0,0,1-.22,0c0-.07,0-0.13,0-0.19s0-.13,0-0.19a1.65,1.65,0,0,0-.06-0.29,1.75,1.75,0,0,0-.13-0.28,1.34,1.34,0,0,0-.26-0.19,0.49,0.49,0,0,0-.32-0.1,0.64,0.64,0,0,0-.57.35,1.89,1.89,0,0,0-.19.89,2.2,2.2,0,0,0,.45,1.49,1.66,1.66,0,0,0,1.37.57,2.53,2.53,0,0,0,1.36-.35,3.78,3.78,0,0,0,1-.92,5.79,5.79,0,0,0,.77-1.43,13.17,13.17,0,0,0,.57-1.74c0.13-.63.26-1.27,0.35-2l0.19-2.06a2.23,2.23,0,0,1,.07-0.69,1.4,1.4,0,0,1,.28-0.51,1.69,1.69,0,0,1,.51-0.35,2.5,2.5,0,0,1,.77-0.13h2.45v5.84c0,0.35,0,.66,0,0.92a1.75,1.75,0,0,1-.16.73,1.26,1.26,0,0,1-.42.47,1.57,1.57,0,0,1-.86.16v2h5.06V226.7l-1.56.1V221Z" transform="translate(-95.5 -95.5)" fill="#495155" fill-rule="evenodd"/>
  <path d="M502.55,220a5.8,5.8,0,0,0-1-1.87,4.27,4.27,0,0,0-1.44-1.07,4.12,4.12,0,0,0-1.75-.38,5.63,5.63,0,0,0-2.32.5,5.84,5.84,0,0,0-1.78,1.37,5.73,5.73,0,0,0-1.15,1.93,7.31,7.31,0,0,0-.38,2.31,7,7,0,0,0,.41,2.51,5.29,5.29,0,0,0,1.18,1.9,4.83,4.83,0,0,0,1.72,1.24,5.57,5.57,0,0,0,2.16.41,4.53,4.53,0,0,0,1.21-.19,5.1,5.1,0,0,0,1.31-.6,5.75,5.75,0,0,0,1.27-1,6.28,6.28,0,0,0,1.08-1.62l-0.57-.6a3.33,3.33,0,0,1-.73.82,6.19,6.19,0,0,1-1,.64,4.3,4.3,0,0,1-1.08.41,3.39,3.39,0,0,1-1.11.16c-0.7,0-1.37,0-2,0a1.39,1.39,0,0,1-1.34-.7,3.85,3.85,0,0,1-.44-1.52,15,15,0,0,1-.07-1.81l8.19-.16A8,8,0,0,0,502.55,220Zm-3.05-1.11a2.41,2.41,0,0,1,.79.48,2.22,2.22,0,0,1,.45.63,2.18,2.18,0,0,1,.16.73h-6.08a2.37,2.37,0,0,1,1.18-1.55,4.88,4.88,0,0,1,2.32-.48A3.43,3.43,0,0,1,499.5,218.87Z" transform="translate(-95.5 -95.5)" fill="#495155" fill-rule="evenodd"/>
  <path d="M510.89,223.12c-0.25-.19-0.47-0.38-0.7-0.57a5.23,5.23,0,0,0-.82-0.41l1.91-1.52c0.19-.16.44-0.35,0.73-0.57a9.79,9.79,0,0,1,.89-0.6A5.88,5.88,0,0,1,514,219a7.11,7.11,0,0,1,1.21-.29v-2h-4.46v2h1.66a4.83,4.83,0,0,0-.7.26c-0.22.12-.48,0.22-0.73,0.35l-3,1.42h-1V220c0-.19,0-0.38,0-0.54a0.73,0.73,0,0,1,.16-0.42,0.68,0.68,0,0,1,.41-0.28,3.07,3.07,0,0,1,.86-0.1v-2h-5.06v2.09l1.56-.07v5.84c0,0.35-.06.66-0.06,0.92a1.6,1.6,0,0,1-.16.73,1.23,1.23,0,0,1-.41.47,1.57,1.57,0,0,1-.86.16v2h5.06v-1l-1.53.07v-5.07l1-.07a11.7,11.7,0,0,1,1.14,1.46l1.63,2.28c0.22,0.32.44,0.6,0.66,0.89a5.33,5.33,0,0,0,.61.73,2.49,2.49,0,0,0,.64.54,1.39,1.39,0,0,0,.66.19h2.23v-2a1.3,1.3,0,0,1-.6-0.13,2.92,2.92,0,0,1-.61-0.31,6.85,6.85,0,0,1-.57-0.42c-0.19-.16-0.38-0.31-0.54-0.47a5.28,5.28,0,0,1-.41-0.41,1.09,1.09,0,0,1-.23-0.26Z" transform="translate(-95.5 -95.5)" fill="#495155" fill-rule="evenodd"/>
  <path d="M517.48,220.36a0.82,0.82,0,0,0,.74.35,1.41,1.41,0,0,0,.54-0.06,1,1,0,0,0,.31-0.16,1.45,1.45,0,0,0,.2-0.22,0.47,0.47,0,0,0,.06-0.19,1.47,1.47,0,0,0-.06-0.32,1.11,1.11,0,0,0-.26-0.28,2.19,2.19,0,0,1,.38-0.35,2.4,2.4,0,0,1,.58-0.26,4.24,4.24,0,0,1,.6-0.12,4.08,4.08,0,0,1,.67-0.07,2.33,2.33,0,0,1,1,.26,1.47,1.47,0,0,1,.67.63,3.45,3.45,0,0,1,.28.89,9.2,9.2,0,0,1,.07,1v1.27a9.57,9.57,0,0,0-1.4.07,8.51,8.51,0,0,0-1.37.28,9.88,9.88,0,0,0-1.31.51,4.27,4.27,0,0,0-1.05.7,3.31,3.31,0,0,0-.73.95,2.3,2.3,0,0,0-.25,1.14,0.9,0.9,0,0,0,.57.82,2.57,2.57,0,0,1,.8.67,3.33,3.33,0,0,0,.57.63,1.35,1.35,0,0,0,1,.32,3.34,3.34,0,0,0,1.69-.48,5.27,5.27,0,0,0,1.49-1.36,5.54,5.54,0,0,0,.07.86,6.35,6.35,0,0,0,.09,1H527V226.7l-1.72.1c0-.29.07-0.54,0.07-0.76s0-.45,0-0.67l0-4.78c0-1.37-.35-2.22-1-2.6s-1.59-.83-2.68-1.33a7.68,7.68,0,0,0-1.78.22,1.75,1.75,0,0,0-1.18.89,2.18,2.18,0,0,1-1,.91,0.92,0.92,0,0,0-.57.86A1.22,1.22,0,0,0,517.48,220.36Zm5.83,5.87a4.71,4.71,0,0,1-.57.25l-0.61.19a1.87,1.87,0,0,1-.64.1,5.86,5.86,0,0,1-.73,0,3.63,3.63,0,0,1-.57,0,1.8,1.8,0,0,1-.48-0.16,0.86,0.86,0,0,1-.32-0.22,0.39,0.39,0,0,1-.12-0.32,0.53,0.53,0,0,1,.15-0.41,1.33,1.33,0,0,1,.45-0.32,3.78,3.78,0,0,1,.7-0.25c0.26-.07.54-0.13,0.86-0.19l1-.1c0.31,0,.6,0,0.92,0v1.46Z" transform="translate(-95.5 -95.5)" fill="#495155" fill-rule="evenodd"/>
  <path d="M539.61,221.32v-1.05a2.35,2.35,0,0,1,.16-0.86,1,1,0,0,1,.41-0.54,1.64,1.64,0,0,1,.86-0.19v-2h-5v2h1.56v2h-6.11v-1.26a0.65,0.65,0,0,1,.16-0.39,0.88,0.88,0,0,1,.44-0.28,3,3,0,0,1,.86-0.1v-2h-5v2.09l1.53-.07v5.84c0,0.35,0,.66,0,0.92a3.82,3.82,0,0,1-.16.73,1.35,1.35,0,0,1-.45.47,1.48,1.48,0,0,1-.82.16v2H533v-1.05l-1.56.07v-5l6.11-.07v1.68c0,0.35,0,.67,0,1a1.75,1.75,0,0,1-.16.76,1.06,1.06,0,0,1-.42.51,1.53,1.53,0,0,1-.85.16v2h5v-0.89l-1.52.06v-6.68Z" transform="translate(-95.5 -95.5)" fill="#495155" fill-rule="evenodd"/>
  <path d="M544,220.36a0.81,0.81,0,0,0,.73.35,1.41,1.41,0,0,0,.54-0.06,1.06,1.06,0,0,0,.32-0.16,1.44,1.44,0,0,0,.19-0.22,0.47,0.47,0,0,0,.06-0.19,1.47,1.47,0,0,0-.06-0.32,1.05,1.05,0,0,0-.25-0.28,1.88,1.88,0,0,1,.38-0.35,2.51,2.51,0,0,1,.57-0.26,7.22,7.22,0,0,1,1.27-.19,2.27,2.27,0,0,1,1,.26,1.42,1.42,0,0,1,.67.63,3.44,3.44,0,0,1,.29.89c0,0.35.06,0.7,0.06,1v1.27a9.64,9.64,0,0,0-1.4.07,8.74,8.74,0,0,0-1.37.28,9.77,9.77,0,0,0-1.3.51,3.92,3.92,0,0,0-1.05.7,3.31,3.31,0,0,0-.73.95,2.2,2.2,0,0,0-.26,1.14,0.9,0.9,0,0,0,.57.82,2.45,2.45,0,0,1,.8.67,3.72,3.72,0,0,0,.57.63,1.35,1.35,0,0,0,1,.32,3.29,3.29,0,0,0,1.69-.48,5.44,5.44,0,0,0,1.5-1.36,7.3,7.3,0,0,0,.06.86,5.42,5.42,0,0,0,.1,1h3.47V226.7l-1.72.1c0-.29.06-0.54,0.06-0.76s0-.45,0-0.67l0-4.78c0-1.37-.35-2.22-1.05-2.6s-1.59-.83-2.67-1.33a7.61,7.61,0,0,0-1.78.22,1.7,1.7,0,0,0-1.18.89,2.2,2.2,0,0,1-1,.91,0.92,0.92,0,0,0-.57.86A1.23,1.23,0,0,0,544,220.36Zm5.82,5.87a4.71,4.71,0,0,1-.57.25l-0.6.19a2,2,0,0,1-.64.1,6,6,0,0,1-.73,0,3.76,3.76,0,0,1-.58,0,1.61,1.61,0,0,1-.47-0.16,0.79,0.79,0,0,1-.32-0.22,0.37,0.37,0,0,1-.13-0.32,0.5,0.5,0,0,1,.16-0.41,1.24,1.24,0,0,1,.45-0.32,3.54,3.54,0,0,1,.7-0.25c0.25-.07.54-0.13,0.85-0.19l1-.1c0.32,0,.6,0,0.92,0v1.46Z" transform="translate(-95.5 -95.5)" fill="#495155" fill-rule="evenodd"/>
  <path d="M566.09,221a8.94,8.94,0,0,1,0-.92,1.68,1.68,0,0,1,.16-0.7,1.07,1.07,0,0,1,.42-0.48,1.61,1.61,0,0,1,.86-0.19v-2H555.65v2h2.29a31.47,31.47,0,0,1-.41,3.81,16.56,16.56,0,0,1-.61,2.53,3.73,3.73,0,0,1-.7,1.37,1,1,0,0,1-.67.41,0.51,0.51,0,0,1-.22,0c0-.07,0-0.13,0-0.19s0-.13,0-0.19a1.93,1.93,0,0,0-.07-0.29,0.88,0.88,0,0,0-.13-0.28,1,1,0,0,0-.25-0.19,0.51,0.51,0,0,0-.32-0.1,0.64,0.64,0,0,0-.57.35,1.88,1.88,0,0,0-.19.89,2.24,2.24,0,0,0,.44,1.49,1.68,1.68,0,0,0,1.37.57,2.55,2.55,0,0,0,1.37-.35,4.1,4.1,0,0,0,1.05-.92,6.15,6.15,0,0,0,.77-1.43,13.17,13.17,0,0,0,.57-1.74c0.13-.63.25-1.27,0.35-2l0.19-2.06a2.57,2.57,0,0,1,.06-0.69,1.41,1.41,0,0,1,.29-0.51,1.69,1.69,0,0,1,.51-0.35,2.43,2.43,0,0,1,.76-0.13h2.45v5.84c0,0.35,0,.66,0,0.92a1.6,1.6,0,0,1-.16.73,1.15,1.15,0,0,1-.41.47,1.57,1.57,0,0,1-.86.16v2h5.06V226.7l-1.56.1V221Z" transform="translate(-95.5 -95.5)" fill="#495155" fill-rule="evenodd"/>
  <polygon points="548.5 0.5 584.36 0.5 657.78 164.5 621.92 164.5 548.5 0.5" fill="#74a7ce" fill-rule="evenodd"/>
  <polygon points="584.36 0.5 620.22 0.5 693.64 164.5 657.78 164.5 584.36 0.5" fill="#4591ca" fill-rule="evenodd"/>
  <polygon points="620.22 0.5 656.08 0.5 729.5 164.5 693.64 164.5 620.22 0.5" fill="#397db1" fill-rule="evenodd"/>
  <path d="M241.89,166.91c19.56-5.1,24.68-16.76,24.68-16.76l-10.11-16.49c-0.27,11.8-2.83,23.46-20.1,31.51s-22.53,18.63-22.53,18.63S222.33,172,241.89,166.91Z" transform="translate(-95.5 -95.5)" fill="#3e93cf"/>
  <path d="M236.36,171.33c-16.22,4.66-21.69,14.82-21.69,14.82,11.44-10.36,18.75-12.06,27.89-11.33,9.31,0.74,20.19.87,23.88-.33a21.79,21.79,0,0,0,7.89-4.23l-6.54-17.43C261.18,162.22,251.4,167,236.36,171.33Z" transform="translate(-95.5 -95.5)" fill="#ed302c"/>
  <g clip-path="url(#aff95f9e-bf2c-463a-ab2d-2acbb21f5601)">
    <rect x="119.14" y="79.2" width="63.71" height="20.92" fill="url(#795e5059-741c-499f-8e0d-d0e8139442fe)"/>
  </g>
  <g clip-path="url(#9b2833e0-4b1b-40a9-a873-94b9bdb53a16)">
    <rect x="119.14" y="89.11" width="66.4" height="16.59" fill="url(#fed9f647-062f-4230-a0d5-d6d7ffc1c06d)"/>
  </g>
  <g clip-path="url(#401e58a6-1153-4e34-b581-71f0e8426748)">
    <rect x="118.47" y="93.67" width="69.49" height="19.7" fill="url(#48cfe7ae-4add-4c4c-9407-05360f891042)"/>
  </g>
  <g clip-path="url(#4c364700-87fa-4e3c-9219-72d441fe7b74)">
    <rect x="118.6" y="100.66" width="71.29" height="18.82" fill="url(#d70ca2c7-aad7-4a55-94b5-8e70303ba0f4)"/>
  </g>
  <g clip-path="url(#37b05312-9b83-4462-bf33-7b9fbe59a5c9)">
    <rect x="49.17" y="50.66" width="65.52" height="48.05" fill="url(#b8c0a0cd-da5f-4b6a-9fea-928360ad7a8e)"/>
  </g>
  <g clip-path="url(#78cdfa76-9d68-4cf8-a0fc-1a6bb031d64a)">
    <rect x="47.41" y="85.35" width="65.39" height="20.55" fill="url(#128c3f76-0410-48d7-a29d-eecdf6037426)"/>
  </g>
  <g clip-path="url(#ce6b7e69-1455-42e9-8394-b046980c0c97)">
    <rect x="44.95" y="92.16" width="67.85" height="20.59" fill="url(#c8189513-6fbc-4c6d-9bc2-030ff3776624)"/>
  </g>
  <g clip-path="url(#bb58d117-1265-4c04-a528-1deed9437483)">
    <rect x="42.55" y="99.43" width="70.66" height="20.46" fill="url(#505b0c1b-a16b-4b32-b82d-0ee0c6e14eb2)"/>
  </g>
  <g>
    <path d="M304.31,230.38H120.79c-7.28,0-7.69-3.08-7.69-3.08,0,6.83,7.18,6.7,7.18,6.7H304.82s7.18,0.13,7.18-6.7C312,227.3,311.6,230.38,304.31,230.38Z" transform="translate(-95.5 -95.5)" fill="#1f6ba0"/>
    <path d="M223.23,223.26a1.92,1.92,0,0,0-1.92-1.92H206.94a1.91,1.91,0,1,0,0,3.83h14.37A1.92,1.92,0,0,0,223.23,223.26Zm-69.49-60.09h-2.23l-25.36,54.29,172.26,0.27-26.3-59.13c7.15-.67,9.3,4.29,9.3,4.29l29,55.24c5.83,11.11-7,10.05-7,10.05l-183.37.14c-11.33,0-5.66-10.59-5.66-10.59s25.22-47.87,28.59-54.17,12.14-4.83,12.14-4.83Z" transform="translate(-95.5 -95.5)" fill="#3e93cf" fill-rule="evenodd"/>
    <path d="M265.34,136.86l0.25,2.22a12.42,12.42,0,0,1,7.45,7.48l2.21,0.21a14.2,14.2,0,0,0-3.69-6.26A14.53,14.53,0,0,0,265.34,136.86Z" transform="translate(-95.5 -95.5)" fill="#3e93cf"/>
    <path d="M264.38,128.28l0.46,4.13a16.65,16.65,0,0,1,14.87,14.78l4.15,0.39a20.61,20.61,0,0,0-6.07-13.26A20.84,20.84,0,0,0,264.38,128.28Z" transform="translate(-95.5 -95.5)" fill="#3e93cf"/>
    <path d="M284.92,127.23a28.79,28.79,0,0,0-21.59-8.37l0.62,5.57,0,0a23,23,0,0,1,17,6.71,22.75,22.75,0,0,1,6.75,16.75l5.66,0.54A28.45,28.45,0,0,0,284.92,127.23Z" transform="translate(-95.5 -95.5)" fill="#3e93cf"/>
    <path d="M233.4,118.49a29.59,29.59,0,0,1-4.19,12.89,44.66,44.66,0,0,1-5.41,7.21c-1.57,1.74-3.25,3.39-5,5a13.82,13.82,0,0,0-1.8,2.17,14.15,14.15,0,0,0-2.34,6.64c-0.06.64,0,1.28,0,1.93q0,11.37,0,22.74a23.09,23.09,0,0,1,3.49-4.68,27.72,27.72,0,0,1,3.82-3.17c1.45-1,3-2,4.47-2.88,3.82-2.31,7.68-4.53,11.51-6.81a32.1,32.1,0,0,0,8.79-7.66,24.48,24.48,0,0,0,3.54-6.23,22.78,22.78,0,0,0,1.53-7.48,17,17,0,0,0-.11-2.47l-18.19-17.14A0.27,0.27,0,0,0,233.4,118.49ZM232,115c1.6,1.48,3.17,3,4.76,4.48l16.34,15.4a0.44,0.44,0,0,1,.11.31,17.24,17.24,0,0,1,.15,3.21,24.94,24.94,0,0,1-4.32,13,31.47,31.47,0,0,1-8.4,8.27c-1.61,1.12-3.33,2.07-5,3.07-3.33,2-6.68,3.89-10,5.94a33,33,0,0,0-6.91,5.37,29.13,29.13,0,0,0-4.19,6.54c-0.47.94-.94,1.89-1.43,2.83,0-3.28,0-6.55,0-9.83V153a15.61,15.61,0,0,1,3.54-9.27,18.56,18.56,0,0,1,1.85-1.91A73.13,73.13,0,0,0,224,136a36.45,36.45,0,0,0,5.78-9.18,27.39,27.39,0,0,0,2-7.43A43.07,43.07,0,0,0,232,115Z" transform="translate(-95.5 -95.5)" fill="#3e74b9" fill-rule="evenodd"/>
  </g>
</svg>
